<svg width="40" height="45" viewBox="0 0 40 45" fill="none" xmlns="http://www.w3.org/2000/svg">
<path fill-rule="evenodd" clip-rule="evenodd" d="M3 16.625C2.79289 16.625 2.625 16.7929 2.625 17V38C2.625 38.2071 2.79289 38.375 3 38.375H33C33.2071 38.375 33.375 38.2071 33.375 38V17C33.375 16.7929 33.2071 16.625 33 16.625H3ZM0.375 17C0.375 15.5503 1.55025 14.375 3 14.375H33C34.4497 14.375 35.625 15.5503 35.625 17V38C35.625 39.4497 34.4497 40.625 33 40.625H3C1.55025 40.625 0.375 39.4497 0.375 38V17Z" fill="#F4F6FD"/>
<path fill-rule="evenodd" clip-rule="evenodd" d="M18 3.125C16.3092 3.125 14.6877 3.79665 13.4922 4.99219C12.2966 6.18774 11.625 7.80925 11.625 9.5V15.5C11.625 16.1213 11.1213 16.625 10.5 16.625C9.87868 16.625 9.375 16.1213 9.375 15.5V9.5C9.375 7.21251 10.2837 5.01871 11.9012 3.4012C13.5187 1.7837 15.7125 0.875 18 0.875C20.2875 0.875 22.4813 1.7837 24.0988 3.4012C25.7163 5.01871 26.625 7.21251 26.625 9.5V15.5C26.625 16.1213 26.1213 16.625 25.5 16.625C24.8787 16.625 24.375 16.1213 24.375 15.5V9.5C24.375 7.80925 23.7034 6.18774 22.5078 4.99219C21.3123 3.79665 19.6908 3.125 18 3.125Z" fill="#F4F6FD"/>
<path fill-rule="evenodd" clip-rule="evenodd" d="M18 22.625C16.5503 22.625 15.375 23.8003 15.375 25.25C15.375 26.6997 16.5503 27.875 18 27.875C19.4497 27.875 20.625 26.6997 20.625 25.25C20.625 23.8003 19.4497 22.625 18 22.625ZM13.125 25.25C13.125 22.5576 15.3076 20.375 18 20.375C20.6924 20.375 22.875 22.5576 22.875 25.25C22.875 27.9424 20.6924 30.125 18 30.125C15.3076 30.125 13.125 27.9424 13.125 25.25Z" fill="#F4F6FD"/>
<path fill-rule="evenodd" clip-rule="evenodd" d="M18 27.875C18.6213 27.875 19.125 28.3787 19.125 29V33.5C19.125 34.1213 18.6213 34.625 18 34.625C17.3787 34.625 16.875 34.1213 16.875 33.5V29C16.875 28.3787 17.3787 27.875 18 27.875Z" fill="#F4F6FD"/>
<path d="M30.3435 43.3756C30.8301 44.6733 32.6658 44.6733 33.1525 43.3756L34.3375 40.2154C34.4896 39.8097 34.8097 39.4897 35.2153 39.3376L38.3755 38.1525C39.6733 37.6658 39.6733 35.8302 38.3755 35.3435L35.2153 34.1584C34.8097 34.0063 34.4896 33.6863 34.3375 33.2806L33.1525 30.1204C32.6658 28.8227 30.8301 28.8227 30.3435 30.1204L29.1584 33.2806C29.0063 33.6863 28.6862 34.0063 28.2806 34.1584L25.1204 35.3435C23.8227 35.8302 23.8227 37.6658 25.1204 38.1525L28.2806 39.3376C28.6862 39.4897 29.0063 39.8097 29.1584 40.2154L30.3435 43.3756Z" fill="#02BFFF"/>
</svg>
